Coordinates
version=1
nRows=27
nColumns=38
inDegrees=no

Units are S.I. units (second, meters, Newtons, ...)
If the header above contains a line with 'inDegrees', this indicates whether rotational values are in degrees (yes) or radians (no).

endheader
time	pelvis_tilt	pelvis_list	pelvis_rotation	pelvis_tx	pelvis_ty	pelvis_tz	hip_flexion_r	hip_adduction_r	hip_rotation_r	knee_angle_r	ankle_angle_r	subtalar_angle_r	mtp_angle_r	hip_flexion_l	hip_adduction_l	hip_rotation_l	knee_angle_l	ankle_angle_l	subtalar_angle_l	mtp_angle_l	lumbar_extension	lumbar_bending	lumbar_rotation	arm_flex_r	arm_add_r	arm_rot_r	elbow_flex_r	pro_sup_r	wrist_flex_r	wrist_dev_r	arm_flex_l	arm_add_l	arm_rot_l	elbow_flex_l	pro_sup_l	wrist_flex_l	wrist_dev_l
1.55	0.00551046	1.32366	-1.62066	0.656059	0.483545	1.01557	-0.262713	0.0525114	-0.290926	0.592373	-0.0113697	0	0	0.0540469	0.0416028	-0.211322	0.0623204	-0.236797	0	0	-0.464886	0.166706	0.325064	-0.0955754	-0.562176	-0.136458	1.66933	0.541202	0	0	0.475739	-0.352717	0.445386	0.918503	0.686687	0	0
1.56	0.000291744	1.32329	-1.61843	0.65589	0.472312	1.01354	-0.27255	0.0516638	-0.287066	0.59826	-0.00931008	0	0	0.0527548	0.0437821	-0.214957	0.0495831	-0.240823	0	0	-0.463921	0.166165	0.327574	-0.0958894	-0.561753	-0.136487	1.66959	0.541895	0	0	0.475457	-0.352161	0.445006	0.917067	0.687077	0	0
1.57	-0.00411505	1.32255	-1.61738	0.655679	0.461017	1.0115	-0.281576	0.049998	-0.283343	0.606496	-0.00964597	0	0	0.0539189	0.044714	-0.21977	0.0503393	-0.24054	0	0	-0.463371	0.165036	0.329739	-0.0951214	-0.561626	-0.135285	1.66924	0.541699	0	0	0.474893	-0.35224	0.444352	0.916282	0.68668	0	0
1.58	-0.00815645	1.31984	-1.61772	0.655389	0.449649	1.00957	-0.292008	0.0475625	-0.27822	0.616177	-0.008709	0	0	0.054617	0.0441345	-0.227515	0.0618171	-0.2404	0	0	-0.46531	0.163023	0.33315	-0.0946168	-0.561914	-0.134533	1.66958	0.542187	0	0	0.474782	-0.352333	0.443616	0.916196	0.687128	0	0
1.59	-0.0123752	1.31672	-1.61825	0.655053	0.438123	1.00764	-0.302216	0.0448031	-0.271698	0.627748	-0.00902225	0	0	0.0577512	0.0415298	-0.238361	0.0879008	-0.234207	0	0	-0.467619	0.160589	0.336767	-0.0941456	-0.562089	-0.133555	1.66977	0.542586	0	0	0.474463	-0.352854	0.442819	0.916849	0.687699	0	0
1.6	-0.0176011	1.3136	-1.61797	0.65465	0.426365	1.00566	-0.31192	0.0421988	-0.263588	0.640834	-0.0109794	0	0	0.0620773	0.0367423	-0.249747	0.124748	-0.223753	0	0	-0.469628	0.15803	0.340728	-0.0942865	-0.562117	-0.132649	1.66981	0.543132	0	0	0.473875	-0.353726	0.442318	0.918109	0.688234	0	0
1.61	-0.0244019	1.31041	-1.61651	0.654184	0.414351	1.00363	-0.321264	0.0399878	-0.253359	0.655098	-0.0141641	0	0	0.0663049	0.0300805	-0.260649	0.168998	-0.21329	0	0	-0.471015	0.155649	0.344408	-0.0938465	-0.562048	-0.130626	1.66883	0.54369	0	0	0.472339	-0.355447	0.441652	0.920121	0.688712	0	0
1.62	-0.0316795	1.30763	-1.61542	0.653671	0.402072	1.00155	-0.329655	0.0376877	-0.240738	0.670638	-0.0192924	0	0	0.0709892	0.0221677	-0.273362	0.219047	-0.203738	0	0	-0.471749	0.152957	0.34937	-0.0949206	-0.561254	-0.130146	1.66809	0.550355	0	0	0.47052	-0.357087	0.441402	0.922601	0.68982	0	0
1.63	-0.0313633	1.30247	-1.62252	0.65321	0.389766	0.999883	-0.339909	0.0325032	-0.227547	0.686883	-0.0254089	0	0	0.0700828	0.0174766	-0.284851	0.259386	-0.209298	0	0	-0.475225	0.147671	0.353995	-0.0952089	-0.561637	-0.128215	1.66712	0.548683	0	0	0.468778	-0.358936	0.44063	0.92581	0.690866	0	0
1.64	-0.0162332	1.29527	-1.64417	0.65285	0.377683	0.998925	-0.350162	0.0224707	-0.213779	0.706029	-0.0346332	0	0	0.0668484	0.0179408	-0.298402	0.287853	-0.22568	0	0	-0.481325	0.137489	0.356785	-0.0939157	-0.560816	-0.12612	1.66451	0.548757	0	0	0.467903	-0.360669	0.439213	0.928661	0.692522	0	0
1.65	0.0116057	1.28768	-1.67697	0.652568	0.365984	0.998611	-0.357178	0.00922148	-0.198332	0.729855	-0.0484844	0	0	0.0674307	0.0208403	-0.313747	0.318186	-0.24803	0	0	-0.488628	0.123	0.357084	-0.0915095	-0.558278	-0.124616	1.66067	0.550621	0	0	0.468277	-0.362356	0.437428	0.93134	0.695052	0	0
1.66	0.0399001	1.28309	-1.70795	0.65244	0.354425	0.998424	-0.357297	-0.00262028	-0.179791	0.759462	-0.0665235	0	0	0.073754	0.0216272	-0.324344	0.357292	-0.267662	0	0	-0.493105	0.109147	0.356141	-0.0903171	-0.554313	-0.125163	1.65699	0.554864	0	0	0.469237	-0.36305	0.435738	0.932861	0.697839	0	0
1.67	0.0608717	1.28135	-1.72946	0.652602	0.342799	0.998191	-0.352014	-0.0106703	-0.159017	0.792565	-0.0887179	0	0	0.0827147	0.0197733	-0.327558	0.401345	-0.278125	0	0	-0.494663	0.0995255	0.354961	-0.0911359	-0.550225	-0.127823	1.65463	0.56085	0	0	0.470354	-0.362253	0.434611	0.932452	0.701296	0	0
1.68	0.0715016	1.27987	-1.73908	0.653098	0.331051	0.998094	-0.3449	-0.0149919	-0.137784	0.827584	-0.116342	0	0	0.0898866	0.0163791	-0.324906	0.444324	-0.278389	0	0	-0.496031	0.0947948	0.353903	-0.0933953	-0.547244	-0.131602	1.65361	0.566984	0	0	0.471424	-0.36037	0.434341	0.930774	0.704989	0	0
1.69	0.0727025	1.27718	-1.73884	0.653822	0.319252	0.998327	-0.337045	-0.0168664	-0.117125	0.864808	-0.153481	0	0	0.0926512	0.0123382	-0.319056	0.483549	-0.271659	0	0	-0.499013	0.0936595	0.353674	-0.0968017	-0.545898	-0.135896	1.65395	0.572793	0	0	0.472556	-0.357674	0.435051	0.92836	0.708366	0	0
1.7	0.0689045	1.27239	-1.73425	0.654589	0.307519	0.999019	-0.329144	-0.0179372	-0.0973992	0.903448	-0.195027	0	0	0.0885819	0.00824434	-0.315153	0.51516	-0.264038	0	0	-0.50465	0.0936822	0.354278	-0.100309	-0.546332	-0.139641	1.65526	0.576811	0	0	0.473667	-0.355161	0.43663	0.926313	0.709716	0	0
1.71	0.0639362	1.267	-1.73004	0.655311	0.295863	1	-0.319001	-0.0192138	-0.0780042	0.944273	-0.253274	0	0	0.0787776	0.00536401	-0.318688	0.533313	-0.258334	0	0	-0.51136	0.0934855	0.356714	-0.104871	-0.546633	-0.144889	1.65771	0.584184	0	0	0.475043	-0.352726	0.439707	0.924537	0.708991	0	0
1.72	0.0621704	1.26231	-1.73028	0.655937	0.284395	1.00103	-0.305196	-0.0212585	-0.0595127	0.989018	-0.281146	0	0	0.0659423	0.00521546	-0.326998	0.540942	-0.255066	0	0	-0.516946	0.0923095	0.357488	-0.106103	-0.54757	-0.146058	1.65906	0.587541	0	0	0.474296	-0.352082	0.440466	0.924241	0.708454	0	0
1.73	0.0626669	1.25974	-1.7335	0.656465	0.273129	1.00194	-0.285999	-0.022948	-0.0426105	1.03743	-0.319617	0	0	0.0545424	0.00621723	-0.339014	0.547044	-0.249221	0	0	-0.520481	0.0905119	0.358738	-0.107608	-0.550606	-0.14568	1.66157	0.575484	0	0	0.473812	-0.352362	0.442854	0.924536	0.70515	0	0
1.74	0.064584	1.25785	-1.73813	0.656942	0.26211	1.00287	-0.26397	-0.0241647	-0.0283322	1.08676	-0.346109	0	0	0.0437864	0.00765451	-0.351392	0.554466	-0.242828	0	0	-0.523515	0.0885214	0.359251	-0.10831	-0.551427	-0.14636	1.66428	0.574379	0	0	0.473015	-0.353352	0.444553	0.925649	0.702614	0	0
1.75	0.0670247	1.25637	-1.74267	0.657452	0.251311	1.00389	-0.240235	-0.0249962	-0.0165512	1.13402	-0.367972	0	0	0.033266	0.00923861	-0.361453	0.561988	-0.235228	0	0	-0.526134	0.0869887	0.358432	-0.107829	-0.551746	-0.146397	1.66694	0.573794	0	0	0.472184	-0.354937	0.44644	0.926615	0.698474	0	0
1.76	0.0685083	1.25442	-1.74469	0.658107	0.240697	1.00512	-0.217203	-0.0252404	-0.00826015	1.17689	-0.376898	0	0	0.0220268	0.011563	-0.368404	0.565836	-0.228662	0	0	-0.52946	0.0865936	0.356254	-0.107156	-0.55184	-0.14684	1.67005	0.573844	0	0	0.471677	-0.35636	0.448158	0.927291	0.694084	0	0
1.77	0.0674083	1.25204	-1.74217	0.65883	0.230218	1.00657	-0.195787	-0.0239626	-0.00340715	1.21486	-0.372467	0	0	0.0100187	0.0127977	-0.371302	0.570599	-0.221689	0	0	-0.533428	0.0877262	0.35299	-0.106535	-0.55189	-0.147218	1.67298	0.574533	0	0	0.471758	-0.357443	0.449823	0.927598	0.689883	0	0
1.78	0.0619373	1.24915	-1.73347	0.659521	0.219843	1.00828	-0.176281	-0.0204996	-0.00190722	1.24824	-0.358902	0	0	-0.00379457	0.012435	-0.368355	0.57449	-0.215335	0	0	-0.538027	0.0907555	0.348995	-0.105984	-0.55161	-0.14782	1.67542	0.575466	0	0	0.47255	-0.358354	0.451569	0.927458	0.687207	0	0
1.79	0.0522874	1.24699	-1.71894	0.660205	0.209536	1.01006	-0.156328	-0.0151669	-0.00316241	1.2786	-0.340829	0	0	-0.0177554	0.010589	-0.361071	0.57455	-0.20983	0	0	-0.541739	0.095853	0.344462	-0.105686	-0.55079	-0.148922	1.6773	0.576896	0	0	0.473731	-0.359042	0.453605	0.926836	0.685445	0	0
1.8	0.0396597	1.24612	-1.70027	0.660874	0.199299	1.01185	-0.134437	-0.00842285	-0.00549556	1.30622	-0.327305	0	0	-0.0305372	0.00715297	-0.353365	0.572802	-0.20528	0	0	-0.54397	0.102447	0.339812	-0.105803	-0.549653	-0.150375	1.67853	0.578674	0	0	0.475037	-0.359359	0.455554	0.925972	0.684597	0	0
1.81	0.0257426	1.24602	-1.67999	0.66147	0.189141	1.01369	-0.11115	-0.000854626	-0.0075086	1.33062	-0.320381	0	0	-0.0426095	0.00268139	-0.348285	0.570989	-0.201722	0	0	-0.545371	0.109426	0.335523	-0.106399	-0.548333	-0.151751	1.679	0.581331	0	0	0.476354	-0.359422	0.45706	0.92539	0.684445	0	0
